# xmcd
#
# Track frame offsets:
#	150
#	18471
#	35395
#	58138
#	73045
#	93258
#	115157
#	133259
#	145100
#	164892
#	180063
#	196364
#	219665
#
# Disc length: 3156 seconds
#
# Revision: 1
# Processed by: cddbd v1.5.1PL0 Copyright (c) Steve Scherf et al.
# Submitted via: audiograbber 1.81.02
#
DISCID=be0c520d
DTITLE=The Cathedrals - Cathedral Classics
DYEAR=2004
DGENRE=Gospel
TTITLE0=Wedding Music
TTITLE1=He Made A Change
TTITLE2=We Shall See Jesus
TTITLE3=I Can See the Hand
TTITLE4=Champion of Love
TTITLE5=Boundless Love
TTITLE6=Somebody Touched Me
TTITLE7=Can He, Could He, Would He
TTITLE8=Then Came the Morning
TTITLE9=Step Into the Water
TTITLE10=He Loves Me
TTITLE11=Sunshine and Roses
TTITLE12=Hide Thou Me
EXTD=
EXTT0=
EXTT1=
EXTT2=
EXTT3=
EXTT4=
EXTT5=
EXTT6=
EXTT7=
EXTT8=
EXTT9=
EXTT10=
EXTT11=
EXTT12=
PLAYORDER=
